<mxfile host="app.diagrams.net" modified="2021-02-18T07:24:02.762Z" agent="5.0 (Macintosh; Intel Mac OS X 10_15_7) AppleWebKit/537.36 (KHTML, like Gecko) Chrome/88.0.4324.150 Safari/537.36" etag="_4HEba3Hm25zXkGBT5nW" version="14.4.2" type="github">
  <diagram id="oxpc5nme3Ge1EFL_8kTr" name="Page-1">
    <mxGraphModel dx="4463" dy="2197" grid="0" gridSize="10" guides="1" tooltips="1" connect="1" arrows="1" fold="1" page="1" pageScale="1" pageWidth="400" pageHeight="300" math="0" shadow="1">
      <root>
        <mxCell id="0" />
        <mxCell id="1" parent="0" />
        <mxCell id="2B-mA19rwRNBJ4Z0f6Fj-69" style="edgeStyle=orthogonalEdgeStyle;rounded=0;orthogonalLoop=1;jettySize=auto;html=1;exitX=0.5;exitY=1;exitDx=0;exitDy=0;" edge="1" parent="1" source="2B-mA19rwRNBJ4Z0f6Fj-1" target="2B-mA19rwRNBJ4Z0f6Fj-35">
          <mxGeometry relative="1" as="geometry">
            <Array as="points">
              <mxPoint x="860" y="120" />
              <mxPoint x="1660" y="120" />
            </Array>
          </mxGeometry>
        </mxCell>
        <mxCell id="2B-mA19rwRNBJ4Z0f6Fj-70" style="edgeStyle=orthogonalEdgeStyle;rounded=0;orthogonalLoop=1;jettySize=auto;html=1;exitX=0.5;exitY=1;exitDx=0;exitDy=0;entryX=0.5;entryY=0;entryDx=0;entryDy=0;" edge="1" parent="1" source="2B-mA19rwRNBJ4Z0f6Fj-1" target="2B-mA19rwRNBJ4Z0f6Fj-33">
          <mxGeometry relative="1" as="geometry">
            <Array as="points">
              <mxPoint x="860" y="120" />
              <mxPoint x="1500" y="120" />
            </Array>
          </mxGeometry>
        </mxCell>
        <mxCell id="2B-mA19rwRNBJ4Z0f6Fj-71" style="edgeStyle=orthogonalEdgeStyle;rounded=0;orthogonalLoop=1;jettySize=auto;html=1;exitX=0.5;exitY=1;exitDx=0;exitDy=0;entryX=0.5;entryY=0;entryDx=0;entryDy=0;" edge="1" parent="1" source="2B-mA19rwRNBJ4Z0f6Fj-1" target="2B-mA19rwRNBJ4Z0f6Fj-32">
          <mxGeometry relative="1" as="geometry">
            <Array as="points">
              <mxPoint x="860" y="120" />
              <mxPoint x="1335" y="120" />
            </Array>
          </mxGeometry>
        </mxCell>
        <mxCell id="2B-mA19rwRNBJ4Z0f6Fj-72" style="edgeStyle=orthogonalEdgeStyle;rounded=0;orthogonalLoop=1;jettySize=auto;html=1;exitX=0.5;exitY=1;exitDx=0;exitDy=0;entryX=0.5;entryY=0;entryDx=0;entryDy=0;" edge="1" parent="1" source="2B-mA19rwRNBJ4Z0f6Fj-1" target="2B-mA19rwRNBJ4Z0f6Fj-31">
          <mxGeometry relative="1" as="geometry">
            <Array as="points">
              <mxPoint x="860" y="120" />
              <mxPoint x="1100" y="120" />
            </Array>
          </mxGeometry>
        </mxCell>
        <mxCell id="2B-mA19rwRNBJ4Z0f6Fj-73" style="edgeStyle=orthogonalEdgeStyle;rounded=0;orthogonalLoop=1;jettySize=auto;html=1;exitX=0.5;exitY=1;exitDx=0;exitDy=0;" edge="1" parent="1" source="2B-mA19rwRNBJ4Z0f6Fj-1" target="2B-mA19rwRNBJ4Z0f6Fj-30">
          <mxGeometry relative="1" as="geometry">
            <Array as="points">
              <mxPoint x="860" y="120" />
              <mxPoint x="940" y="120" />
            </Array>
          </mxGeometry>
        </mxCell>
        <mxCell id="2B-mA19rwRNBJ4Z0f6Fj-74" style="edgeStyle=orthogonalEdgeStyle;rounded=0;orthogonalLoop=1;jettySize=auto;html=1;exitX=0.5;exitY=1;exitDx=0;exitDy=0;" edge="1" parent="1" source="2B-mA19rwRNBJ4Z0f6Fj-1" target="2B-mA19rwRNBJ4Z0f6Fj-29">
          <mxGeometry relative="1" as="geometry">
            <Array as="points">
              <mxPoint x="860" y="120" />
              <mxPoint x="780" y="120" />
            </Array>
          </mxGeometry>
        </mxCell>
        <mxCell id="2B-mA19rwRNBJ4Z0f6Fj-75" style="edgeStyle=orthogonalEdgeStyle;rounded=0;orthogonalLoop=1;jettySize=auto;html=1;exitX=0.5;exitY=1;exitDx=0;exitDy=0;entryX=0.5;entryY=0;entryDx=0;entryDy=0;" edge="1" parent="1" source="2B-mA19rwRNBJ4Z0f6Fj-1" target="2B-mA19rwRNBJ4Z0f6Fj-28">
          <mxGeometry relative="1" as="geometry">
            <Array as="points">
              <mxPoint x="860" y="120" />
              <mxPoint x="580" y="120" />
            </Array>
          </mxGeometry>
        </mxCell>
        <mxCell id="2B-mA19rwRNBJ4Z0f6Fj-76" style="edgeStyle=orthogonalEdgeStyle;rounded=0;orthogonalLoop=1;jettySize=auto;html=1;exitX=0.5;exitY=1;exitDx=0;exitDy=0;entryX=0.5;entryY=0;entryDx=0;entryDy=0;" edge="1" parent="1" source="2B-mA19rwRNBJ4Z0f6Fj-1" target="2B-mA19rwRNBJ4Z0f6Fj-27">
          <mxGeometry relative="1" as="geometry">
            <Array as="points">
              <mxPoint x="860" y="120" />
              <mxPoint x="380" y="120" />
            </Array>
          </mxGeometry>
        </mxCell>
        <mxCell id="2B-mA19rwRNBJ4Z0f6Fj-77" style="edgeStyle=orthogonalEdgeStyle;rounded=0;orthogonalLoop=1;jettySize=auto;html=1;exitX=0.5;exitY=1;exitDx=0;exitDy=0;entryX=0.5;entryY=0;entryDx=0;entryDy=0;" edge="1" parent="1" source="2B-mA19rwRNBJ4Z0f6Fj-1" target="2B-mA19rwRNBJ4Z0f6Fj-26">
          <mxGeometry relative="1" as="geometry">
            <Array as="points">
              <mxPoint x="860" y="120" />
              <mxPoint x="180" y="120" />
            </Array>
          </mxGeometry>
        </mxCell>
        <mxCell id="2B-mA19rwRNBJ4Z0f6Fj-78" style="edgeStyle=orthogonalEdgeStyle;rounded=0;orthogonalLoop=1;jettySize=auto;html=1;exitX=0.5;exitY=1;exitDx=0;exitDy=0;entryX=0.5;entryY=0;entryDx=0;entryDy=0;" edge="1" parent="1" source="2B-mA19rwRNBJ4Z0f6Fj-1" target="2B-mA19rwRNBJ4Z0f6Fj-2">
          <mxGeometry relative="1" as="geometry">
            <Array as="points">
              <mxPoint x="860" y="120" />
              <mxPoint x="-22" y="120" />
            </Array>
          </mxGeometry>
        </mxCell>
        <mxCell id="2B-mA19rwRNBJ4Z0f6Fj-1" value="Shark App" style="ellipse;whiteSpace=wrap;html=1;" vertex="1" parent="1">
          <mxGeometry x="800" y="10" width="120" height="80" as="geometry" />
        </mxCell>
        <mxCell id="2B-mA19rwRNBJ4Z0f6Fj-14" style="edgeStyle=orthogonalEdgeStyle;rounded=0;orthogonalLoop=1;jettySize=auto;html=1;exitX=0.5;exitY=1;exitDx=0;exitDy=0;entryX=0.5;entryY=0;entryDx=0;entryDy=0;" edge="1" parent="1" source="2B-mA19rwRNBJ4Z0f6Fj-2" target="2B-mA19rwRNBJ4Z0f6Fj-4">
          <mxGeometry relative="1" as="geometry" />
        </mxCell>
        <mxCell id="2B-mA19rwRNBJ4Z0f6Fj-15" style="edgeStyle=orthogonalEdgeStyle;rounded=0;orthogonalLoop=1;jettySize=auto;html=1;exitX=0.5;exitY=1;exitDx=0;exitDy=0;entryX=0.5;entryY=0;entryDx=0;entryDy=0;" edge="1" parent="1" source="2B-mA19rwRNBJ4Z0f6Fj-2" target="2B-mA19rwRNBJ4Z0f6Fj-3">
          <mxGeometry relative="1" as="geometry" />
        </mxCell>
        <mxCell id="2B-mA19rwRNBJ4Z0f6Fj-17" style="edgeStyle=orthogonalEdgeStyle;rounded=0;orthogonalLoop=1;jettySize=auto;html=1;exitX=0.5;exitY=1;exitDx=0;exitDy=0;entryX=0.5;entryY=0;entryDx=0;entryDy=0;" edge="1" parent="1" source="2B-mA19rwRNBJ4Z0f6Fj-2" target="2B-mA19rwRNBJ4Z0f6Fj-6">
          <mxGeometry relative="1" as="geometry" />
        </mxCell>
        <mxCell id="2B-mA19rwRNBJ4Z0f6Fj-18" style="edgeStyle=orthogonalEdgeStyle;rounded=0;orthogonalLoop=1;jettySize=auto;html=1;exitX=0.5;exitY=1;exitDx=0;exitDy=0;entryX=0.5;entryY=0;entryDx=0;entryDy=0;" edge="1" parent="1" source="2B-mA19rwRNBJ4Z0f6Fj-2" target="2B-mA19rwRNBJ4Z0f6Fj-7">
          <mxGeometry relative="1" as="geometry" />
        </mxCell>
        <mxCell id="2B-mA19rwRNBJ4Z0f6Fj-19" style="edgeStyle=orthogonalEdgeStyle;rounded=0;orthogonalLoop=1;jettySize=auto;html=1;exitX=0.5;exitY=1;exitDx=0;exitDy=0;entryX=0.5;entryY=0;entryDx=0;entryDy=0;" edge="1" parent="1" source="2B-mA19rwRNBJ4Z0f6Fj-2" target="2B-mA19rwRNBJ4Z0f6Fj-5">
          <mxGeometry relative="1" as="geometry" />
        </mxCell>
        <mxCell id="2B-mA19rwRNBJ4Z0f6Fj-2" value="Home" style="rounded=1;whiteSpace=wrap;html=1;" vertex="1" parent="1">
          <mxGeometry x="-82.5" y="160" width="120" height="60" as="geometry" />
        </mxCell>
        <mxCell id="2B-mA19rwRNBJ4Z0f6Fj-3" value="Clean" style="rounded=1;whiteSpace=wrap;html=1;" vertex="1" parent="1">
          <mxGeometry x="-130" y="260" width="70" height="60" as="geometry" />
        </mxCell>
        <mxCell id="2B-mA19rwRNBJ4Z0f6Fj-4" value="Schedule" style="rounded=1;whiteSpace=wrap;html=1;" vertex="1" parent="1">
          <mxGeometry x="-220" y="260" width="70" height="60" as="geometry" />
        </mxCell>
        <mxCell id="2B-mA19rwRNBJ4Z0f6Fj-20" style="edgeStyle=orthogonalEdgeStyle;rounded=0;orthogonalLoop=1;jettySize=auto;html=1;exitX=0.5;exitY=1;exitDx=0;exitDy=0;" edge="1" parent="1" source="2B-mA19rwRNBJ4Z0f6Fj-5" target="2B-mA19rwRNBJ4Z0f6Fj-9">
          <mxGeometry relative="1" as="geometry">
            <Array as="points">
              <mxPoint x="-5" y="330" />
              <mxPoint x="-85" y="330" />
            </Array>
          </mxGeometry>
        </mxCell>
        <mxCell id="2B-mA19rwRNBJ4Z0f6Fj-21" style="edgeStyle=orthogonalEdgeStyle;rounded=0;orthogonalLoop=1;jettySize=auto;html=1;exitX=0.5;exitY=1;exitDx=0;exitDy=0;entryX=0.5;entryY=0;entryDx=0;entryDy=0;" edge="1" parent="1" source="2B-mA19rwRNBJ4Z0f6Fj-5" target="2B-mA19rwRNBJ4Z0f6Fj-10">
          <mxGeometry relative="1" as="geometry" />
        </mxCell>
        <mxCell id="2B-mA19rwRNBJ4Z0f6Fj-23" style="edgeStyle=orthogonalEdgeStyle;rounded=0;orthogonalLoop=1;jettySize=auto;html=1;exitX=0.5;exitY=1;exitDx=0;exitDy=0;entryX=0.5;entryY=0;entryDx=0;entryDy=0;" edge="1" parent="1" source="2B-mA19rwRNBJ4Z0f6Fj-5" target="2B-mA19rwRNBJ4Z0f6Fj-12">
          <mxGeometry relative="1" as="geometry">
            <Array as="points">
              <mxPoint x="-5" y="330" />
              <mxPoint x="75" y="330" />
            </Array>
          </mxGeometry>
        </mxCell>
        <mxCell id="2B-mA19rwRNBJ4Z0f6Fj-5" value="Map" style="rounded=1;whiteSpace=wrap;html=1;" vertex="1" parent="1">
          <mxGeometry x="-40" y="260" width="70" height="60" as="geometry" />
        </mxCell>
        <mxCell id="2B-mA19rwRNBJ4Z0f6Fj-6" value="Notifications" style="rounded=1;whiteSpace=wrap;html=1;" vertex="1" parent="1">
          <mxGeometry x="50.5" y="260" width="70" height="60" as="geometry" />
        </mxCell>
        <mxCell id="2B-mA19rwRNBJ4Z0f6Fj-25" style="edgeStyle=orthogonalEdgeStyle;rounded=0;orthogonalLoop=1;jettySize=auto;html=1;exitX=0.5;exitY=1;exitDx=0;exitDy=0;entryX=0.5;entryY=0;entryDx=0;entryDy=0;" edge="1" parent="1" source="2B-mA19rwRNBJ4Z0f6Fj-7" target="2B-mA19rwRNBJ4Z0f6Fj-8">
          <mxGeometry relative="1" as="geometry" />
        </mxCell>
        <mxCell id="2B-mA19rwRNBJ4Z0f6Fj-7" value="Support" style="rounded=1;whiteSpace=wrap;html=1;" vertex="1" parent="1">
          <mxGeometry x="140" y="260" width="70" height="60" as="geometry" />
        </mxCell>
        <mxCell id="2B-mA19rwRNBJ4Z0f6Fj-8" value="FAQs" style="rounded=1;whiteSpace=wrap;html=1;" vertex="1" parent="1">
          <mxGeometry x="140" y="350" width="70" height="60" as="geometry" />
        </mxCell>
        <mxCell id="2B-mA19rwRNBJ4Z0f6Fj-9" value="Edit Map" style="rounded=1;whiteSpace=wrap;html=1;" vertex="1" parent="1">
          <mxGeometry x="-120" y="350" width="70" height="60" as="geometry" />
        </mxCell>
        <mxCell id="2B-mA19rwRNBJ4Z0f6Fj-22" style="edgeStyle=orthogonalEdgeStyle;rounded=0;orthogonalLoop=1;jettySize=auto;html=1;exitX=0.5;exitY=1;exitDx=0;exitDy=0;entryX=0.5;entryY=0;entryDx=0;entryDy=0;" edge="1" parent="1" source="2B-mA19rwRNBJ4Z0f6Fj-10" target="2B-mA19rwRNBJ4Z0f6Fj-11">
          <mxGeometry relative="1" as="geometry" />
        </mxCell>
        <mxCell id="2B-mA19rwRNBJ4Z0f6Fj-10" value="More" style="rounded=1;whiteSpace=wrap;html=1;" vertex="1" parent="1">
          <mxGeometry x="-40" y="350" width="70" height="60" as="geometry" />
        </mxCell>
        <mxCell id="2B-mA19rwRNBJ4Z0f6Fj-11" value="Delete App" style="rounded=1;whiteSpace=wrap;html=1;" vertex="1" parent="1">
          <mxGeometry x="-40" y="440" width="70" height="60" as="geometry" />
        </mxCell>
        <mxCell id="2B-mA19rwRNBJ4Z0f6Fj-24" style="edgeStyle=orthogonalEdgeStyle;rounded=0;orthogonalLoop=1;jettySize=auto;html=1;exitX=0.5;exitY=1;exitDx=0;exitDy=0;entryX=0.5;entryY=0;entryDx=0;entryDy=0;" edge="1" parent="1" source="2B-mA19rwRNBJ4Z0f6Fj-12" target="2B-mA19rwRNBJ4Z0f6Fj-13">
          <mxGeometry relative="1" as="geometry" />
        </mxCell>
        <mxCell id="2B-mA19rwRNBJ4Z0f6Fj-12" value="Support" style="rounded=1;whiteSpace=wrap;html=1;" vertex="1" parent="1">
          <mxGeometry x="40" y="350" width="70" height="60" as="geometry" />
        </mxCell>
        <mxCell id="2B-mA19rwRNBJ4Z0f6Fj-13" value="FAQs" style="rounded=1;whiteSpace=wrap;html=1;" vertex="1" parent="1">
          <mxGeometry x="40" y="440" width="70" height="60" as="geometry" />
        </mxCell>
        <mxCell id="2B-mA19rwRNBJ4Z0f6Fj-26" value="Add A Robot" style="rounded=1;whiteSpace=wrap;html=1;" vertex="1" parent="1">
          <mxGeometry x="120.5" y="160" width="120" height="60" as="geometry" />
        </mxCell>
        <mxCell id="2B-mA19rwRNBJ4Z0f6Fj-54" style="edgeStyle=orthogonalEdgeStyle;rounded=0;orthogonalLoop=1;jettySize=auto;html=1;exitX=0.5;exitY=1;exitDx=0;exitDy=0;entryX=0.5;entryY=0;entryDx=0;entryDy=0;" edge="1" parent="1" source="2B-mA19rwRNBJ4Z0f6Fj-27" target="2B-mA19rwRNBJ4Z0f6Fj-37">
          <mxGeometry relative="1" as="geometry" />
        </mxCell>
        <mxCell id="2B-mA19rwRNBJ4Z0f6Fj-55" style="edgeStyle=orthogonalEdgeStyle;rounded=0;orthogonalLoop=1;jettySize=auto;html=1;exitX=0.5;exitY=1;exitDx=0;exitDy=0;entryX=0.5;entryY=0;entryDx=0;entryDy=0;" edge="1" parent="1" source="2B-mA19rwRNBJ4Z0f6Fj-27" target="2B-mA19rwRNBJ4Z0f6Fj-38">
          <mxGeometry relative="1" as="geometry" />
        </mxCell>
        <mxCell id="2B-mA19rwRNBJ4Z0f6Fj-27" value="History" style="rounded=1;whiteSpace=wrap;html=1;" vertex="1" parent="1">
          <mxGeometry x="320" y="160" width="120" height="60" as="geometry" />
        </mxCell>
        <mxCell id="2B-mA19rwRNBJ4Z0f6Fj-56" style="edgeStyle=orthogonalEdgeStyle;rounded=0;orthogonalLoop=1;jettySize=auto;html=1;exitX=0.5;exitY=1;exitDx=0;exitDy=0;entryX=0.5;entryY=0;entryDx=0;entryDy=0;" edge="1" parent="1" source="2B-mA19rwRNBJ4Z0f6Fj-28" target="2B-mA19rwRNBJ4Z0f6Fj-39">
          <mxGeometry relative="1" as="geometry" />
        </mxCell>
        <mxCell id="2B-mA19rwRNBJ4Z0f6Fj-57" style="edgeStyle=orthogonalEdgeStyle;rounded=0;orthogonalLoop=1;jettySize=auto;html=1;exitX=0.5;exitY=1;exitDx=0;exitDy=0;entryX=0.5;entryY=0;entryDx=0;entryDy=0;" edge="1" parent="1" source="2B-mA19rwRNBJ4Z0f6Fj-28" target="2B-mA19rwRNBJ4Z0f6Fj-40">
          <mxGeometry relative="1" as="geometry" />
        </mxCell>
        <mxCell id="2B-mA19rwRNBJ4Z0f6Fj-28" value="Schedule" style="rounded=1;whiteSpace=wrap;html=1;" vertex="1" parent="1">
          <mxGeometry x="520" y="160" width="120" height="60" as="geometry" />
        </mxCell>
        <mxCell id="2B-mA19rwRNBJ4Z0f6Fj-58" style="edgeStyle=orthogonalEdgeStyle;rounded=0;orthogonalLoop=1;jettySize=auto;html=1;exitX=0.5;exitY=1;exitDx=0;exitDy=0;entryX=0.5;entryY=0;entryDx=0;entryDy=0;" edge="1" parent="1" source="2B-mA19rwRNBJ4Z0f6Fj-29" target="2B-mA19rwRNBJ4Z0f6Fj-41">
          <mxGeometry relative="1" as="geometry" />
        </mxCell>
        <mxCell id="2B-mA19rwRNBJ4Z0f6Fj-59" style="edgeStyle=orthogonalEdgeStyle;rounded=0;orthogonalLoop=1;jettySize=auto;html=1;exitX=0.5;exitY=1;exitDx=0;exitDy=0;" edge="1" parent="1" source="2B-mA19rwRNBJ4Z0f6Fj-29" target="2B-mA19rwRNBJ4Z0f6Fj-43">
          <mxGeometry relative="1" as="geometry" />
        </mxCell>
        <mxCell id="2B-mA19rwRNBJ4Z0f6Fj-60" style="edgeStyle=orthogonalEdgeStyle;rounded=0;orthogonalLoop=1;jettySize=auto;html=1;exitX=0.5;exitY=1;exitDx=0;exitDy=0;" edge="1" parent="1" source="2B-mA19rwRNBJ4Z0f6Fj-29" target="2B-mA19rwRNBJ4Z0f6Fj-46">
          <mxGeometry relative="1" as="geometry" />
        </mxCell>
        <mxCell id="2B-mA19rwRNBJ4Z0f6Fj-29" value="Map" style="rounded=1;whiteSpace=wrap;html=1;" vertex="1" parent="1">
          <mxGeometry x="720" y="160" width="120" height="60" as="geometry" />
        </mxCell>
        <mxCell id="2B-mA19rwRNBJ4Z0f6Fj-62" style="edgeStyle=orthogonalEdgeStyle;rounded=0;orthogonalLoop=1;jettySize=auto;html=1;exitX=0.5;exitY=1;exitDx=0;exitDy=0;entryX=0.5;entryY=0;entryDx=0;entryDy=0;" edge="1" parent="1" source="2B-mA19rwRNBJ4Z0f6Fj-30" target="2B-mA19rwRNBJ4Z0f6Fj-61">
          <mxGeometry relative="1" as="geometry" />
        </mxCell>
        <mxCell id="2B-mA19rwRNBJ4Z0f6Fj-30" value="Shop" style="rounded=1;whiteSpace=wrap;html=1;" vertex="1" parent="1">
          <mxGeometry x="880" y="160" width="120" height="60" as="geometry" />
        </mxCell>
        <mxCell id="2B-mA19rwRNBJ4Z0f6Fj-63" style="edgeStyle=orthogonalEdgeStyle;rounded=0;orthogonalLoop=1;jettySize=auto;html=1;exitX=0.5;exitY=1;exitDx=0;exitDy=0;entryX=0.5;entryY=0;entryDx=0;entryDy=0;" edge="1" parent="1" source="2B-mA19rwRNBJ4Z0f6Fj-31" target="2B-mA19rwRNBJ4Z0f6Fj-48">
          <mxGeometry relative="1" as="geometry" />
        </mxCell>
        <mxCell id="2B-mA19rwRNBJ4Z0f6Fj-64" style="edgeStyle=orthogonalEdgeStyle;rounded=0;orthogonalLoop=1;jettySize=auto;html=1;exitX=0.5;exitY=1;exitDx=0;exitDy=0;" edge="1" parent="1" source="2B-mA19rwRNBJ4Z0f6Fj-31" target="2B-mA19rwRNBJ4Z0f6Fj-49">
          <mxGeometry relative="1" as="geometry" />
        </mxCell>
        <mxCell id="2B-mA19rwRNBJ4Z0f6Fj-65" style="edgeStyle=orthogonalEdgeStyle;rounded=0;orthogonalLoop=1;jettySize=auto;html=1;exitX=0.5;exitY=1;exitDx=0;exitDy=0;entryX=0.5;entryY=0;entryDx=0;entryDy=0;" edge="1" parent="1" source="2B-mA19rwRNBJ4Z0f6Fj-31" target="2B-mA19rwRNBJ4Z0f6Fj-50">
          <mxGeometry relative="1" as="geometry" />
        </mxCell>
        <mxCell id="2B-mA19rwRNBJ4Z0f6Fj-31" value="Settings" style="rounded=1;whiteSpace=wrap;html=1;" vertex="1" parent="1">
          <mxGeometry x="1040" y="160" width="120" height="60" as="geometry" />
        </mxCell>
        <mxCell id="2B-mA19rwRNBJ4Z0f6Fj-66" style="edgeStyle=orthogonalEdgeStyle;rounded=0;orthogonalLoop=1;jettySize=auto;html=1;exitX=0.5;exitY=1;exitDx=0;exitDy=0;entryX=0.5;entryY=0;entryDx=0;entryDy=0;" edge="1" parent="1" source="2B-mA19rwRNBJ4Z0f6Fj-32" target="2B-mA19rwRNBJ4Z0f6Fj-51">
          <mxGeometry relative="1" as="geometry" />
        </mxCell>
        <mxCell id="2B-mA19rwRNBJ4Z0f6Fj-67" style="edgeStyle=orthogonalEdgeStyle;rounded=0;orthogonalLoop=1;jettySize=auto;html=1;exitX=0.5;exitY=1;exitDx=0;exitDy=0;entryX=0.5;entryY=0;entryDx=0;entryDy=0;" edge="1" parent="1" source="2B-mA19rwRNBJ4Z0f6Fj-32" target="2B-mA19rwRNBJ4Z0f6Fj-52">
          <mxGeometry relative="1" as="geometry" />
        </mxCell>
        <mxCell id="2B-mA19rwRNBJ4Z0f6Fj-32" value="Support" style="rounded=1;whiteSpace=wrap;html=1;" vertex="1" parent="1">
          <mxGeometry x="1275" y="160" width="120" height="60" as="geometry" />
        </mxCell>
        <mxCell id="2B-mA19rwRNBJ4Z0f6Fj-68" style="edgeStyle=orthogonalEdgeStyle;rounded=0;orthogonalLoop=1;jettySize=auto;html=1;exitX=0.5;exitY=1;exitDx=0;exitDy=0;entryX=0.5;entryY=0;entryDx=0;entryDy=0;" edge="1" parent="1" source="2B-mA19rwRNBJ4Z0f6Fj-33" target="2B-mA19rwRNBJ4Z0f6Fj-53">
          <mxGeometry relative="1" as="geometry" />
        </mxCell>
        <mxCell id="2B-mA19rwRNBJ4Z0f6Fj-33" value="Notifications" style="rounded=1;whiteSpace=wrap;html=1;" vertex="1" parent="1">
          <mxGeometry x="1440" y="160" width="120" height="60" as="geometry" />
        </mxCell>
        <mxCell id="2B-mA19rwRNBJ4Z0f6Fj-35" value="Sign Out" style="rounded=0;whiteSpace=wrap;html=1;" vertex="1" parent="1">
          <mxGeometry x="1600" y="160" width="120" height="60" as="geometry" />
        </mxCell>
        <mxCell id="2B-mA19rwRNBJ4Z0f6Fj-37" value="Calendar" style="rounded=1;whiteSpace=wrap;html=1;" vertex="1" parent="1">
          <mxGeometry x="305" y="260" width="70" height="60" as="geometry" />
        </mxCell>
        <mxCell id="2B-mA19rwRNBJ4Z0f6Fj-38" value="Support" style="rounded=1;whiteSpace=wrap;html=1;" vertex="1" parent="1">
          <mxGeometry x="385" y="260" width="70" height="60" as="geometry" />
        </mxCell>
        <mxCell id="2B-mA19rwRNBJ4Z0f6Fj-39" value="Dates/Times" style="rounded=1;whiteSpace=wrap;html=1;" vertex="1" parent="1">
          <mxGeometry x="505" y="260" width="70" height="60" as="geometry" />
        </mxCell>
        <mxCell id="2B-mA19rwRNBJ4Z0f6Fj-40" value="Support" style="rounded=1;whiteSpace=wrap;html=1;" vertex="1" parent="1">
          <mxGeometry x="585" y="260" width="70" height="60" as="geometry" />
        </mxCell>
        <mxCell id="2B-mA19rwRNBJ4Z0f6Fj-41" value="Edit Map" style="rounded=1;whiteSpace=wrap;html=1;" vertex="1" parent="1">
          <mxGeometry x="665" y="260" width="70" height="60" as="geometry" />
        </mxCell>
        <mxCell id="2B-mA19rwRNBJ4Z0f6Fj-42" style="edgeStyle=orthogonalEdgeStyle;rounded=0;orthogonalLoop=1;jettySize=auto;html=1;exitX=0.5;exitY=1;exitDx=0;exitDy=0;entryX=0.5;entryY=0;entryDx=0;entryDy=0;" edge="1" parent="1" source="2B-mA19rwRNBJ4Z0f6Fj-43" target="2B-mA19rwRNBJ4Z0f6Fj-44">
          <mxGeometry relative="1" as="geometry" />
        </mxCell>
        <mxCell id="2B-mA19rwRNBJ4Z0f6Fj-43" value="More" style="rounded=1;whiteSpace=wrap;html=1;" vertex="1" parent="1">
          <mxGeometry x="745" y="260" width="70" height="60" as="geometry" />
        </mxCell>
        <mxCell id="2B-mA19rwRNBJ4Z0f6Fj-44" value="Delete App" style="rounded=1;whiteSpace=wrap;html=1;" vertex="1" parent="1">
          <mxGeometry x="745" y="350" width="70" height="60" as="geometry" />
        </mxCell>
        <mxCell id="2B-mA19rwRNBJ4Z0f6Fj-45" style="edgeStyle=orthogonalEdgeStyle;rounded=0;orthogonalLoop=1;jettySize=auto;html=1;exitX=0.5;exitY=1;exitDx=0;exitDy=0;entryX=0.5;entryY=0;entryDx=0;entryDy=0;" edge="1" parent="1" source="2B-mA19rwRNBJ4Z0f6Fj-46" target="2B-mA19rwRNBJ4Z0f6Fj-47">
          <mxGeometry relative="1" as="geometry" />
        </mxCell>
        <mxCell id="2B-mA19rwRNBJ4Z0f6Fj-46" value="Support" style="rounded=1;whiteSpace=wrap;html=1;" vertex="1" parent="1">
          <mxGeometry x="825" y="260" width="70" height="60" as="geometry" />
        </mxCell>
        <mxCell id="2B-mA19rwRNBJ4Z0f6Fj-47" value="FAQs" style="rounded=1;whiteSpace=wrap;html=1;" vertex="1" parent="1">
          <mxGeometry x="825" y="350" width="70" height="60" as="geometry" />
        </mxCell>
        <mxCell id="2B-mA19rwRNBJ4Z0f6Fj-48" value="Profile" style="rounded=1;whiteSpace=wrap;html=1;" vertex="1" parent="1">
          <mxGeometry x="985" y="260" width="70" height="60" as="geometry" />
        </mxCell>
        <mxCell id="2B-mA19rwRNBJ4Z0f6Fj-49" value="About This App" style="rounded=1;whiteSpace=wrap;html=1;" vertex="1" parent="1">
          <mxGeometry x="1065" y="260" width="70" height="60" as="geometry" />
        </mxCell>
        <mxCell id="2B-mA19rwRNBJ4Z0f6Fj-50" value="Robots" style="rounded=1;whiteSpace=wrap;html=1;" vertex="1" parent="1">
          <mxGeometry x="1145" y="260" width="70" height="60" as="geometry" />
        </mxCell>
        <mxCell id="2B-mA19rwRNBJ4Z0f6Fj-51" value="Resources" style="rounded=1;whiteSpace=wrap;html=1;" vertex="1" parent="1">
          <mxGeometry x="1260" y="260" width="70" height="60" as="geometry" />
        </mxCell>
        <mxCell id="2B-mA19rwRNBJ4Z0f6Fj-52" value="Call Center" style="rounded=1;whiteSpace=wrap;html=1;" vertex="1" parent="1">
          <mxGeometry x="1340" y="260" width="70" height="60" as="geometry" />
        </mxCell>
        <mxCell id="2B-mA19rwRNBJ4Z0f6Fj-53" value="Manage Notifications" style="rounded=1;whiteSpace=wrap;html=1;" vertex="1" parent="1">
          <mxGeometry x="1465" y="260" width="70" height="60" as="geometry" />
        </mxCell>
        <mxCell id="2B-mA19rwRNBJ4Z0f6Fj-61" value="Direct to Website" style="rounded=1;whiteSpace=wrap;html=1;" vertex="1" parent="1">
          <mxGeometry x="905" y="260" width="70" height="60" as="geometry" />
        </mxCell>
      </root>
    </mxGraphModel>
  </diagram>
</mxfile>
